<svg width="342" height="65" viewBox="0 0 342 65" fill="none" xmlns="http://www.w3.org/2000/svg">
<path d="M324.634 56.0001C323.441 56.0001 322.471 55.6644 321.725 54.9929C321.053 54.3215 320.718 53.4636 320.718 52.4191V19.8548C320.718 17.9898 319.748 17.0572 317.808 17.0572H310.758C308.445 17.0572 307.289 15.9009 307.289 13.5882C307.289 11.2755 308.445 10.1191 310.758 10.1191H338.399C339.443 10.1191 340.301 10.4549 340.972 11.1263C341.644 11.7231 341.98 12.5437 341.98 13.5882C341.98 14.6326 341.644 15.4906 340.972 16.162C340.301 16.7588 339.443 17.0572 338.399 17.0572H331.46C329.521 17.0572 328.551 17.9898 328.551 19.8548V52.4191C328.551 53.4636 328.178 54.3215 327.432 54.9929C326.76 55.6644 325.828 56.0001 324.634 56.0001Z" fill="black"/>
<path d="M294.462 56C291.18 56 288.009 55.4405 284.951 54.3215C281.966 53.2024 279.654 51.5984 278.012 49.5096C277.416 48.6889 277.117 47.8683 277.117 47.0477C277.117 46.0778 277.49 45.2572 278.236 44.5857C279.057 43.8397 279.952 43.4667 280.922 43.4667C281.444 43.4667 281.966 43.5786 282.489 43.8024C283.011 43.9516 283.421 44.25 283.72 44.6977C284.913 46.1151 286.517 47.2342 288.531 48.0548C290.62 48.8754 292.784 49.2857 295.022 49.2857C297.633 49.2857 299.759 48.6516 301.401 47.3834C303.116 46.1151 303.974 44.4365 303.974 42.3477C303.974 39.9604 302.967 38.2818 300.953 37.3119C299.013 36.2675 296.738 35.5215 294.127 35.0738C291.739 34.6262 289.315 33.9921 286.853 33.1715C284.391 32.2762 282.339 31.008 280.698 29.3667C279.057 27.6508 278.236 25.3381 278.236 22.4286C278.236 18.4746 279.728 15.3413 282.712 13.0286C285.771 10.7159 289.837 9.55957 294.91 9.55957C297.596 9.55957 300.058 9.96989 302.296 10.7905C304.534 11.5366 306.399 12.581 307.891 13.9239C308.786 14.6699 309.234 15.6024 309.234 16.7215C309.234 17.6167 308.898 18.4 308.227 19.0715C307.555 19.7429 306.772 20.0786 305.877 20.0786C304.981 20.0786 304.124 19.7802 303.303 19.1834C300.916 17.2437 297.969 16.2739 294.462 16.2739C288.494 16.2739 285.51 18.2881 285.51 22.3167C285.51 24.2564 286.405 25.5992 288.196 26.3453C290.061 27.0167 292.56 27.7254 295.693 28.4715C297.185 28.7699 298.789 29.2175 300.505 29.8143C302.296 30.3365 304.012 31.1199 305.653 32.1643C307.294 33.1342 308.637 34.477 309.681 36.1929C310.726 37.8342 311.248 39.923 311.248 42.4596C311.248 46.4881 309.681 49.7707 306.548 52.3072C303.489 54.7691 299.461 56 294.462 56Z" fill="black"/>
<path d="M258.057 54.881C256.192 54.881 254.7 54.3215 253.581 53.2025C252.462 52.0834 251.902 50.5913 251.902 48.7263V15.9382C251.902 14.2223 252.462 12.8422 253.581 11.7977C254.775 10.6787 256.155 10.1191 257.721 10.1191H274.619C275.887 10.1191 276.782 10.4549 277.305 11.1263C277.902 11.7231 278.2 12.5064 278.2 13.4763C278.2 14.3715 277.864 15.1549 277.193 15.8263C276.596 16.4977 275.738 16.8334 274.619 16.8334H262.645C260.706 16.8334 259.736 17.8033 259.736 19.7429V25.8977C259.736 27.8374 260.631 28.8072 262.421 28.8072H273.5C274.768 28.8072 275.663 29.1429 276.186 29.8144C276.782 30.4858 277.081 31.2691 277.081 32.1644C277.081 32.985 276.745 33.7683 276.074 34.5144C275.477 35.1858 274.619 35.5215 273.5 35.5215H262.421C260.631 35.5215 259.736 36.454 259.736 38.3191V45.1453C259.736 47.085 260.668 48.0548 262.533 48.0548H275.738C277.006 48.0548 277.902 48.4279 278.424 49.1739C279.021 49.8453 279.319 50.6286 279.319 51.5239C279.319 52.4191 278.983 53.2025 278.312 53.8739C277.715 54.5453 276.857 54.881 275.738 54.881H258.057Z" fill="black"/>
<path d="M216.116 56C215.146 56 214.251 55.7016 213.43 55.1048C212.61 54.508 212.199 53.6127 212.199 52.4191V14.7072C212.199 12.9913 212.721 11.7231 213.766 10.9024C214.885 10.0072 216.079 9.55957 217.347 9.55957C219.287 9.55957 220.704 10.3056 221.599 11.7977L240.063 40.781C240.437 41.3778 240.847 41.6762 241.294 41.6762C241.966 41.6762 242.302 41.154 242.302 40.1096L241.854 13.1405C241.854 11.9469 242.264 11.0516 243.085 10.4548C243.906 9.85798 244.801 9.55957 245.771 9.55957C246.74 9.55957 247.636 9.85798 248.456 10.4548C249.277 11.0516 249.687 11.9469 249.687 13.1405V51.0762C249.687 52.7175 249.202 53.9484 248.233 54.7691C247.263 55.5897 246.144 56 244.875 56C243.98 56 243.085 55.7762 242.19 55.3286C241.369 54.9556 240.66 54.3215 240.063 53.4262L221.935 25.2262C221.562 24.6294 221.152 24.331 220.704 24.331C220.033 24.331 219.697 24.8532 219.697 25.8977L220.033 52.4191C220.033 53.6127 219.622 54.508 218.802 55.1048C218.056 55.7016 217.16 56 216.116 56Z" fill="black"/>
<path d="M189.165 56C184.838 56 180.884 54.9928 177.304 52.9785C173.797 50.8897 171 48.092 168.911 44.5857C166.822 41.0047 165.777 36.9762 165.777 32.5C165.777 27.8 166.822 23.6968 168.911 20.1905C171 16.6841 173.797 13.9611 177.304 12.0214C180.884 10.0071 184.838 9 189.165 9C193.492 9 197.372 10.0071 200.804 12.0214C204.31 13.9611 207.07 16.6841 209.084 20.1905C211.173 23.6968 212.218 27.8 212.218 32.5C212.218 36.9762 211.173 41.0047 209.084 44.5857C207.07 48.092 204.31 50.8897 200.804 52.9785C197.372 54.9928 193.492 56 189.165 56ZM189.165 49.1738C192.15 49.1738 194.761 48.4278 196.999 46.9357C199.311 45.369 201.102 43.3174 202.37 40.7809C203.638 38.2444 204.273 35.4841 204.273 32.5C204.273 27.7254 202.855 23.7714 200.02 20.6381C197.185 17.5048 193.567 15.9381 189.165 15.9381C184.689 15.9381 181.034 17.5048 178.199 20.6381C175.364 23.7714 173.946 27.7254 173.946 32.5C173.946 35.4841 174.581 38.2444 175.849 40.7809C177.117 43.3174 178.908 45.369 181.22 46.9357C183.533 48.4278 186.181 49.1738 189.165 49.1738Z" fill="black"/>
<path d="M144.435 56C140.108 56 136.154 54.9928 132.573 52.9785C129.067 50.8897 126.269 48.092 124.18 44.5857C122.091 41.0047 121.047 36.9762 121.047 32.5C121.047 27.8 122.091 23.6968 124.18 20.1905C126.269 16.6841 129.067 13.9611 132.573 12.0214C136.154 10.0071 140.108 9 144.435 9C148.762 9 152.641 10.0071 156.073 12.0214C159.579 13.9611 162.34 16.6841 164.354 20.1905C166.443 23.6968 167.487 27.8 167.487 32.5C167.487 36.9762 166.443 41.0047 164.354 44.5857C162.34 48.092 159.579 50.8897 156.073 52.9785C152.641 54.9928 148.762 56 144.435 56ZM144.435 49.1738C147.419 49.1738 150.03 48.4278 152.268 46.9357C154.581 45.369 156.371 43.3174 157.64 40.7809C158.908 38.2444 159.542 35.4841 159.542 32.5C159.542 27.7254 158.125 23.7714 155.29 20.6381C152.455 17.5048 148.837 15.9381 144.435 15.9381C139.959 15.9381 136.303 17.5048 133.468 20.6381C130.633 23.7714 129.216 27.7254 129.216 32.5C129.216 35.4841 129.85 38.2444 131.118 40.7809C132.387 43.3174 134.177 45.369 136.49 46.9357C138.802 48.4278 141.451 49.1738 144.435 49.1738Z" fill="black"/>
<path d="M31.7319 56C30.7621 56 29.9041 55.6643 29.1581 54.9928C28.4121 54.3214 28.0391 53.4262 28.0391 52.3071C28.0391 51.9341 28.1137 51.4492 28.2629 50.8524L42.251 12.9167C42.7732 11.6484 43.5565 10.6786 44.601 10.0071C45.6454 9.33571 46.7645 9 47.9581 9C49.1518 9 50.2708 9.33571 51.3152 10.0071C52.4343 10.6786 53.2549 11.6484 53.7771 12.9167L68.6605 50.8524C68.8097 51.4492 68.8843 51.9341 68.8843 52.3071C68.8843 53.4262 68.5113 54.3214 67.7652 54.9928C67.0192 55.6643 66.1613 56 65.1914 56C64.52 56 63.8113 55.8135 63.0652 55.4405C62.3938 55.142 61.8716 54.6198 61.4986 53.8738L57.8057 44.0262C57.7311 43.5786 57.4327 43.3547 56.9105 43.3547H39.7891C39.2668 43.3547 38.9311 43.5786 38.7819 44.0262L35.4248 53.8738C35.0518 54.6198 34.4922 55.142 33.7462 55.4405C33.0748 55.8135 32.4033 56 31.7319 56ZM43.1462 36.6405H53.2176C53.6652 36.6405 54.001 36.4913 54.2248 36.1928C54.5232 35.8198 54.5978 35.3722 54.4486 34.85L49.0771 19.519C48.8533 18.773 48.5176 18.4 48.07 18.4C47.5478 18.4 47.1748 18.773 46.951 19.519L41.9152 34.9619C41.766 35.4095 41.8033 35.8198 42.0272 36.1928C42.3256 36.4913 42.6986 36.6405 43.1462 36.6405Z" fill="black"/>
<path d="M17.3452 56.0001C16.1516 56.0001 15.1817 55.6644 14.4357 54.9929C13.7643 54.3215 13.4286 53.4636 13.4286 52.4191V19.8548C13.4286 17.9898 12.4587 17.0572 10.519 17.0572H3.46905C1.15635 17.0572 0 15.9009 0 13.5882C0 11.2755 1.15635 10.1191 3.46905 10.1191H31.1095C32.154 10.1191 33.0119 10.4549 33.6833 11.1263C34.3547 11.7231 34.6905 12.5437 34.6905 13.5882C34.6905 14.6326 34.3547 15.4906 33.6833 16.162C33.0119 16.7588 32.154 17.0572 31.1095 17.0572H24.1714C22.2317 17.0572 21.2619 17.9898 21.2619 19.8548V52.4191C21.2619 53.4636 20.8889 54.3215 20.1428 54.9929C19.4714 55.6644 18.5389 56.0001 17.3452 56.0001Z" fill="black"/>
<g clip-path="url(#clip0_383_1659)">
<path d="M121.144 14.6234V9.74512H65.9004V14.6177H77.2162L76.8551 24.3628H69.1507V29.2354H76.6716L75.6513 56.8714H83.7741V29.2354H103.264V56.8714H111.399L110.373 29.2354H117.899V24.3743H110.195L109.834 14.6291L121.144 14.6234ZM103.276 24.3685H83.7856V14.6234H103.276V24.3685Z" fill="#227FD4"/>
</g>
<defs>
<clipPath id="clip0_383_1659">
<rect width="65" height="65" fill="white" transform="translate(61)"/>
</clipPath>
</defs>
</svg>
