<svg width="280" height="39" viewBox="0 0 280 39" fill="none" xmlns="http://www.w3.org/2000/svg">
<path d="M15.094 38.91C14.1233 38.91 13.3347 38.637 12.728 38.091C12.182 37.545 11.909 36.8473 11.909 35.998V9.517C11.909 8.00033 11.1203 7.242 9.54301 7.242H3.81001C1.92934 7.242 0.98901 6.30166 0.98901 4.421C0.98901 2.54033 1.92934 1.6 3.81001 1.6H26.287C27.1363 1.6 27.834 1.873 28.38 2.419C28.926 2.90433 29.199 3.57167 29.199 4.421C29.199 5.27033 28.926 5.968 28.38 6.514C27.834 6.99933 27.1363 7.242 26.287 7.242H20.645C19.0677 7.242 18.279 8.00033 18.279 9.517V35.998C18.279 36.8473 17.9757 37.545 17.369 38.091C16.823 38.637 16.0647 38.91 15.094 38.91ZM26.7918 38.91C26.0031 38.91 25.3054 38.637 24.6988 38.091C24.0921 37.545 23.7888 36.817 23.7888 35.907C23.7888 35.6037 23.8494 35.2093 23.9708 34.724L35.3458 3.875C35.7704 2.84366 36.4074 2.055 37.2568 1.509C38.1061 0.962998 39.0161 0.689998 39.9868 0.689998C40.9574 0.689998 41.8674 0.962998 42.7168 1.509C43.6268 2.055 44.2941 2.84366 44.7188 3.875L56.8218 34.724C56.9431 35.2093 57.0038 35.6037 57.0038 35.907C57.0038 36.817 56.7004 37.545 56.0938 38.091C55.4871 38.637 54.7894 38.91 54.0008 38.91C53.4548 38.91 52.8784 38.7583 52.2718 38.455C51.7258 38.2123 51.3011 37.7877 50.9978 37.181L47.9948 29.173C47.9341 28.809 47.6914 28.627 47.2668 28.627H33.3438C32.9191 28.627 32.6461 28.809 32.5248 29.173L29.7948 37.181C29.4914 37.7877 29.0364 38.2123 28.4298 38.455C27.8838 38.7583 27.3378 38.91 26.7918 38.91ZM36.0738 23.167H44.2638C44.6278 23.167 44.9008 23.0457 45.0828 22.803C45.3254 22.4997 45.3861 22.1357 45.2648 21.711L40.8968 9.244C40.7148 8.63733 40.4418 8.334 40.0778 8.334C39.6531 8.334 39.3498 8.63733 39.1678 9.244L35.0728 21.802C34.9514 22.166 34.9818 22.4997 35.1638 22.803C35.4064 23.0457 35.7098 23.167 36.0738 23.167ZM65.7163 38.91C64.7457 38.91 63.957 38.637 63.3503 38.091C62.8043 37.545 62.5313 36.8473 62.5313 35.998V9.517C62.5313 8.00033 61.7427 7.242 60.1653 7.242H54.4323C52.5517 7.242 51.6113 6.30166 51.6113 4.421C51.6113 2.54033 52.5517 1.6 54.4323 1.6H76.9093C77.7587 1.6 78.4563 1.873 79.0023 2.419C79.5483 2.90433 79.8213 3.57167 79.8213 4.421C79.8213 5.27033 79.5483 5.968 79.0023 6.514C78.4563 6.99933 77.7587 7.242 76.9093 7.242H71.2673C69.69 7.242 68.9013 8.00033 68.9013 9.517V35.998C68.9013 36.8473 68.598 37.545 67.9913 38.091C67.4453 38.637 66.687 38.91 65.7163 38.91ZM89.3834 38.91C88.4128 38.91 87.6241 38.637 87.0174 38.091C86.4714 37.545 86.1984 36.8473 86.1984 35.998V9.517C86.1984 8.00033 85.4098 7.242 83.8324 7.242H78.0994C76.2188 7.242 75.2784 6.30166 75.2784 4.421C75.2784 2.54033 76.2188 1.6 78.0994 1.6H100.576C101.426 1.6 102.123 1.873 102.669 2.419C103.215 2.90433 103.488 3.57167 103.488 4.421C103.488 5.27033 103.215 5.968 102.669 6.514C102.123 6.99933 101.426 7.242 100.576 7.242H94.9344C93.3571 7.242 92.5684 8.00033 92.5684 9.517V35.998C92.5684 36.8473 92.2651 37.545 91.6584 38.091C91.1124 38.637 90.3541 38.91 89.3834 38.91ZM118.441 38.91C114.922 38.91 111.707 38.091 108.795 36.453C105.944 34.7543 103.669 32.4793 101.97 29.628C100.271 26.716 99.4219 23.44 99.4219 19.8C99.4219 15.978 100.271 12.6413 101.97 9.79C103.669 6.93867 105.944 4.72433 108.795 3.147C111.707 1.509 114.922 0.689998 118.441 0.689998C121.96 0.689998 125.114 1.509 127.905 3.147C130.756 4.72433 133.001 6.93867 134.639 9.79C136.338 12.6413 137.187 15.978 137.187 19.8C137.187 23.44 136.338 26.716 134.639 29.628C133.001 32.4793 130.756 34.7543 127.905 36.453C125.114 38.091 121.96 38.91 118.441 38.91ZM118.441 33.359C120.868 33.359 122.991 32.7523 124.811 31.539C126.692 30.265 128.148 28.5967 129.179 26.534C130.21 24.4713 130.726 22.2267 130.726 19.8C130.726 15.9173 129.573 12.702 127.268 10.154C124.963 7.606 122.02 6.332 118.441 6.332C114.801 6.332 111.828 7.606 109.523 10.154C107.218 12.702 106.065 15.9173 106.065 19.8C106.065 22.2267 106.581 24.4713 107.612 26.534C108.643 28.5967 110.099 30.265 111.98 31.539C113.861 32.7523 116.014 33.359 118.441 33.359ZM154.816 38.91C151.297 38.91 148.082 38.091 145.17 36.453C142.319 34.7543 140.044 32.4793 138.345 29.628C136.646 26.716 135.797 23.44 135.797 19.8C135.797 15.978 136.646 12.6413 138.345 9.79C140.044 6.93867 142.319 4.72433 145.17 3.147C148.082 1.509 151.297 0.689998 154.816 0.689998C158.335 0.689998 161.489 1.509 164.28 3.147C167.131 4.72433 169.376 6.93867 171.014 9.79C172.713 12.6413 173.562 15.978 173.562 19.8C173.562 23.44 172.713 26.716 171.014 29.628C169.376 32.4793 167.131 34.7543 164.28 36.453C161.489 38.091 158.335 38.91 154.816 38.91ZM154.816 33.359C157.243 33.359 159.366 32.7523 161.186 31.539C163.067 30.265 164.523 28.5967 165.554 26.534C166.585 24.4713 167.101 22.2267 167.101 19.8C167.101 15.9173 165.948 12.702 163.643 10.154C161.338 7.606 158.395 6.332 154.816 6.332C151.176 6.332 148.203 7.606 145.898 10.154C143.593 12.702 142.44 15.9173 142.44 19.8C142.44 22.2267 142.956 24.4713 143.987 26.534C145.018 28.5967 146.474 30.265 148.355 31.539C150.236 32.7523 152.389 33.359 154.816 33.359ZM176.733 38.91C175.944 38.91 175.216 38.6673 174.549 38.182C173.881 37.6967 173.548 36.9687 173.548 35.998V5.331C173.548 3.93566 173.972 2.90433 174.822 2.237C175.732 1.509 176.702 1.145 177.734 1.145C179.311 1.145 180.464 1.75166 181.192 2.965L196.207 26.534C196.51 27.0193 196.844 27.262 197.208 27.262C197.754 27.262 198.027 26.8373 198.027 25.988L197.663 4.057C197.663 3.08633 197.996 2.35833 198.664 1.873C199.331 1.38766 200.059 1.145 200.848 1.145C201.636 1.145 202.364 1.38766 203.032 1.873C203.699 2.35833 204.033 3.08633 204.033 4.057V34.906C204.033 36.2407 203.638 37.2417 202.85 37.909C202.061 38.5763 201.151 38.91 200.12 38.91C199.392 38.91 198.664 38.728 197.936 38.364C197.268 38.0607 196.692 37.545 196.207 36.817L181.465 13.885C181.161 13.3997 180.828 13.157 180.464 13.157C179.918 13.157 179.645 13.5817 179.645 14.431L179.918 35.998C179.918 36.9687 179.584 37.6967 178.917 38.182C178.31 38.6673 177.582 38.91 176.733 38.91ZM210.84 38C209.323 38 208.11 37.545 207.2 36.635C206.29 35.725 205.835 34.5117 205.835 32.995V6.332C205.835 4.93666 206.29 3.81433 207.2 2.965C208.171 2.055 209.293 1.6 210.567 1.6H224.308C225.339 1.6 226.067 1.873 226.492 2.419C226.977 2.90433 227.22 3.54133 227.22 4.33C227.22 5.058 226.947 5.695 226.401 6.241C225.916 6.787 225.218 7.06 224.308 7.06H214.571C212.994 7.06 212.205 7.84867 212.205 9.426V14.431C212.205 16.0083 212.933 16.797 214.389 16.797H223.398C224.429 16.797 225.157 17.07 225.582 17.616C226.067 18.162 226.31 18.799 226.31 19.527C226.31 20.1943 226.037 20.8313 225.491 21.438C225.006 21.984 224.308 22.257 223.398 22.257H214.389C212.933 22.257 212.205 23.0153 212.205 24.532V30.083C212.205 31.6603 212.963 32.449 214.48 32.449H225.218C226.249 32.449 226.977 32.7523 227.402 33.359C227.887 33.905 228.13 34.542 228.13 35.27C228.13 35.998 227.857 36.635 227.311 37.181C226.826 37.727 226.128 38 225.218 38H210.84ZM240.443 38.91C237.774 38.91 235.196 38.455 232.708 37.545C230.282 36.635 228.401 35.3307 227.066 33.632C226.581 32.9647 226.338 32.2973 226.338 31.63C226.338 30.8413 226.642 30.174 227.248 29.628C227.916 29.0213 228.644 28.718 229.432 28.718C229.857 28.718 230.282 28.809 230.706 28.991C231.131 29.1123 231.465 29.355 231.707 29.719C232.678 30.8717 233.982 31.7817 235.62 32.449C237.319 33.1163 239.078 33.45 240.898 33.45C243.022 33.45 244.751 32.9343 246.085 31.903C247.481 30.8717 248.178 29.5067 248.178 27.808C248.178 25.8667 247.359 24.5017 245.721 23.713C244.144 22.8637 242.294 22.257 240.17 21.893C238.229 21.529 236.257 21.0133 234.255 20.346C232.253 19.618 230.585 18.5867 229.25 17.252C227.916 15.8567 227.248 13.976 227.248 11.61C227.248 8.39466 228.462 5.84666 230.888 3.966C233.376 2.08533 236.682 1.145 240.807 1.145C242.991 1.145 244.993 1.47866 246.813 2.146C248.633 2.75267 250.15 3.602 251.363 4.694C252.091 5.30067 252.455 6.059 252.455 6.969C252.455 7.697 252.182 8.334 251.636 8.88C251.09 9.426 250.453 9.699 249.725 9.699C248.997 9.699 248.3 9.45633 247.632 8.971C245.691 7.39366 243.295 6.605 240.443 6.605C235.59 6.605 233.163 8.243 233.163 11.519C233.163 13.0963 233.891 14.1883 235.347 14.795C236.864 15.341 238.896 15.9173 241.444 16.524C242.658 16.7667 243.962 17.1307 245.357 17.616C246.813 18.0407 248.209 18.6777 249.543 19.527C250.878 20.3157 251.97 21.4077 252.819 22.803C253.669 24.1377 254.093 25.8363 254.093 27.899C254.093 31.175 252.819 33.8443 250.271 35.907C247.784 37.909 244.508 38.91 240.443 38.91ZM264.978 38.91C264.007 38.91 263.219 38.637 262.612 38.091C262.066 37.545 261.793 36.8473 261.793 35.998V9.517C261.793 8.00033 261.004 7.242 259.427 7.242H253.694C251.813 7.242 250.873 6.30166 250.873 4.421C250.873 2.54033 251.813 1.6 253.694 1.6H276.171C277.02 1.6 277.718 1.873 278.264 2.419C278.81 2.90433 279.083 3.57167 279.083 4.421C279.083 5.27033 278.81 5.968 278.264 6.514C277.718 6.99933 277.02 7.242 276.171 7.242H270.529C268.952 7.242 268.163 8.00033 268.163 9.517V35.998C268.163 36.8473 267.86 37.545 267.253 38.091C266.707 38.637 265.949 38.91 264.978 38.91Z" fill="black"/>
</svg>
